<mxfile host="app.diagrams.net" modified="2022-03-17T04:14:03.569Z" agent="5.0 (Macintosh; Intel Mac OS X 10_15_7) AppleWebKit/605.1.15 (KHTML, like Gecko) Version/14.1.2 Safari/605.1.15" etag="snuQlJmx25esjH27PwYz" version="17.1.2" type="github">
  <diagram id="h_TArFZReYyLkt6W6l1r" name="Page-1">
    <mxGraphModel dx="1806" dy="784" grid="0" gridSize="10" guides="1" tooltips="1" connect="1" arrows="1" fold="1" page="0" pageScale="1" pageWidth="827" pageHeight="1169" math="0" shadow="0">
      <root>
        <mxCell id="0" />
        <mxCell id="1" parent="0" />
        <mxCell id="vTBMwlU6D-roeUIOne7e-3" value="" style="edgeStyle=orthogonalEdgeStyle;rounded=0;orthogonalLoop=1;jettySize=auto;html=1;endArrow=none;startSize=14;endSize=14;sourcePerimeterSpacing=8;targetPerimeterSpacing=8;endFill=0;" edge="1" parent="1" source="vTBMwlU6D-roeUIOne7e-1" target="vTBMwlU6D-roeUIOne7e-2">
          <mxGeometry relative="1" as="geometry" />
        </mxCell>
        <mxCell id="vTBMwlU6D-roeUIOne7e-5" style="edgeStyle=orthogonalEdgeStyle;rounded=0;orthogonalLoop=1;jettySize=auto;html=1;endArrow=none;endFill=0;startSize=14;endSize=14;sourcePerimeterSpacing=8;targetPerimeterSpacing=8;" edge="1" parent="1" source="vTBMwlU6D-roeUIOne7e-1" target="vTBMwlU6D-roeUIOne7e-4">
          <mxGeometry relative="1" as="geometry" />
        </mxCell>
        <mxCell id="vTBMwlU6D-roeUIOne7e-15" style="edgeStyle=orthogonalEdgeStyle;rounded=0;orthogonalLoop=1;jettySize=auto;html=1;endArrow=none;endFill=0;startSize=14;endSize=14;sourcePerimeterSpacing=8;targetPerimeterSpacing=8;" edge="1" parent="1" source="vTBMwlU6D-roeUIOne7e-1" target="vTBMwlU6D-roeUIOne7e-14">
          <mxGeometry relative="1" as="geometry">
            <Array as="points">
              <mxPoint x="161" y="169" />
              <mxPoint x="-196" y="169" />
            </Array>
          </mxGeometry>
        </mxCell>
        <mxCell id="vTBMwlU6D-roeUIOne7e-1" value="&amp;lt;App/&amp;gt;" style="rounded=0;whiteSpace=wrap;html=1;hachureGap=4;fillColor=#647687;strokeColor=#314354;fontColor=#ffffff;" vertex="1" parent="1">
          <mxGeometry x="81" y="63" width="160" height="80" as="geometry" />
        </mxCell>
        <mxCell id="vTBMwlU6D-roeUIOne7e-2" value="&amp;lt;Tittle/&amp;gt;" style="rounded=0;whiteSpace=wrap;html=1;hachureGap=4;fillColor=#647687;strokeColor=#314354;fontColor=#ffffff;" vertex="1" parent="1">
          <mxGeometry x="-65" y="195" width="160" height="80" as="geometry" />
        </mxCell>
        <mxCell id="vTBMwlU6D-roeUIOne7e-13" style="edgeStyle=orthogonalEdgeStyle;rounded=0;orthogonalLoop=1;jettySize=auto;html=1;endArrow=none;endFill=0;startSize=14;endSize=14;sourcePerimeterSpacing=8;targetPerimeterSpacing=8;" edge="1" parent="1" source="vTBMwlU6D-roeUIOne7e-4" target="vTBMwlU6D-roeUIOne7e-12">
          <mxGeometry relative="1" as="geometry" />
        </mxCell>
        <mxCell id="vTBMwlU6D-roeUIOne7e-4" value="&amp;lt;Gallery/&amp;gt;" style="rounded=0;whiteSpace=wrap;html=1;hachureGap=4;fillColor=#647687;strokeColor=#314354;fontColor=#ffffff;" vertex="1" parent="1">
          <mxGeometry x="203" y="195" width="160" height="80" as="geometry" />
        </mxCell>
        <mxCell id="vTBMwlU6D-roeUIOne7e-9" style="edgeStyle=orthogonalEdgeStyle;rounded=0;orthogonalLoop=1;jettySize=auto;html=1;endArrow=none;endFill=0;startSize=14;endSize=14;sourcePerimeterSpacing=8;targetPerimeterSpacing=8;" edge="1" parent="1" source="vTBMwlU6D-roeUIOne7e-6">
          <mxGeometry relative="1" as="geometry">
            <mxPoint x="283" y="172" as="targetPoint" />
            <Array as="points">
              <mxPoint x="500" y="169" />
              <mxPoint x="283" y="169" />
            </Array>
          </mxGeometry>
        </mxCell>
        <mxCell id="vTBMwlU6D-roeUIOne7e-6" value="&amp;lt;Slideshow/&amp;gt;" style="rounded=0;whiteSpace=wrap;html=1;hachureGap=4;fillColor=#647687;strokeColor=#314354;fontColor=#ffffff;" vertex="1" parent="1">
          <mxGeometry x="420" y="195" width="160" height="80" as="geometry" />
        </mxCell>
        <mxCell id="vTBMwlU6D-roeUIOne7e-12" value="&amp;lt;FileCard/&amp;gt;" style="rounded=0;whiteSpace=wrap;html=1;hachureGap=4;fillColor=#647687;strokeColor=#314354;fontColor=#ffffff;" vertex="1" parent="1">
          <mxGeometry x="203" y="372" width="160" height="80" as="geometry" />
        </mxCell>
        <mxCell id="vTBMwlU6D-roeUIOne7e-14" value="&amp;lt;Home/&amp;gt;" style="rounded=0;whiteSpace=wrap;html=1;hachureGap=4;fillColor=#647687;strokeColor=#314354;fontColor=#ffffff;" vertex="1" parent="1">
          <mxGeometry x="-276" y="195" width="160" height="80" as="geometry" />
        </mxCell>
        <mxCell id="vTBMwlU6D-roeUIOne7e-16" value="&lt;div class=&quot;page&quot; title=&quot;Page 1&quot; style=&quot;font-size: 15px&quot;&gt;&lt;span style=&quot;font-family: &amp;#34;consolas&amp;#34; ; font-style: italic&quot;&gt;state.selected handleClick()&lt;/span&gt;&lt;br&gt;&lt;/div&gt;" style="rounded=0;whiteSpace=wrap;html=1;hachureGap=4;" vertex="1" parent="1">
          <mxGeometry x="276" y="423" width="114" height="53" as="geometry" />
        </mxCell>
        <mxCell id="vTBMwlU6D-roeUIOne7e-17" value="&lt;div class=&quot;page&quot; title=&quot;Page 1&quot; style=&quot;font-size: 15px&quot;&gt;&lt;span style=&quot;font-family: &amp;#34;consolas&amp;#34; ; font-style: italic&quot;&gt;state currentImageID currentInterval fasterInterval slowerInterval autoShow()&lt;/span&gt;&lt;br&gt;&lt;/div&gt;&lt;div class=&quot;page&quot; title=&quot;Page 1&quot; style=&quot;font-size: 15px&quot;&gt;&lt;span style=&quot;font-family: &amp;#34;consolas&amp;#34; ; font-style: italic&quot;&gt;fasterInterval()&lt;/span&gt;&lt;/div&gt;&lt;div class=&quot;page&quot; title=&quot;Page 1&quot; style=&quot;font-size: 15px&quot;&gt;&lt;span style=&quot;font-family: &amp;#34;consolas&amp;#34; ; font-style: italic&quot;&gt;slowerInterval()&lt;/span&gt;&lt;/div&gt;&lt;div class=&quot;page&quot; title=&quot;Page 1&quot; style=&quot;font-size: 15px&quot;&gt;&lt;span style=&quot;font-family: &amp;#34;consolas&amp;#34; ; font-style: italic&quot;&gt;componenDidMount()&lt;/span&gt;&lt;/div&gt;&lt;div class=&quot;page&quot; title=&quot;Page 1&quot; style=&quot;font-size: 15px&quot;&gt;&lt;span style=&quot;font-family: &amp;#34;consolas&amp;#34; ; font-style: italic&quot;&gt;componentWillUnmount()&lt;/span&gt;&lt;/div&gt;&lt;div class=&quot;page&quot; title=&quot;Page 1&quot; style=&quot;font-size: 15px&quot;&gt;&lt;span style=&quot;font-family: &amp;#34;consolas&amp;#34; ; font-style: italic&quot;&gt;startShow()&lt;/span&gt;&lt;/div&gt;&lt;div class=&quot;page&quot; title=&quot;Page 1&quot; style=&quot;font-size: 15px&quot;&gt;&lt;span style=&quot;font-family: &amp;#34;consolas&amp;#34; ; font-style: italic&quot;&gt;stopShow()&lt;/span&gt;&lt;/div&gt;&lt;div class=&quot;page&quot; title=&quot;Page 1&quot; style=&quot;font-size: 15px&quot;&gt;&lt;span style=&quot;font-family: &amp;#34;consolas&amp;#34; ; font-style: italic&quot;&gt;&lt;br&gt;&lt;/span&gt;&lt;/div&gt;" style="rounded=0;whiteSpace=wrap;html=1;hachureGap=4;" vertex="1" parent="1">
          <mxGeometry x="497" y="255" width="183" height="199" as="geometry" />
        </mxCell>
      </root>
    </mxGraphModel>
  </diagram>
</mxfile>
